<svg xmlns="http://www.w3.org/2000/svg" width="165.832" height="105" viewBox="0 0 165.832 105">
  <g id="Group_1253" data-name="Group 1253" transform="translate(-26.925 -109.047)" opacity="0.44">
    <g id="Group_1236" data-name="Group 1236" transform="translate(26.925 163.753)">
      <g id="Group_1221" data-name="Group 1221" transform="translate(0.38 1.117)">
        <g id="Group_1220" data-name="Group 1220">
          <path id="Path_3338" data-name="Path 3338" d="M35.015,151.957a.274.274,0,0,1,.135-.184c.645-.572,2.081-1.253,2.978.8a.906.906,0,0,1,.058.285l-1.481,5.262-3.49,12.38-.825,2.933s-1.682,4.734-3.116,7.982c-2.29,5.55-2.346,3.056-1.722-.612-.174.352,1.8-8.686,1.8-8.686l.707-2.517,3.48-12.383Z" transform="translate(-27.212 -151.188)" fill="#1c1c1c"/>
        </g>
      </g>
      <g id="Group_1223" data-name="Group 1223" transform="translate(10.143)">
        <g id="Group_1222" data-name="Group 1222">
          <path id="Path_3339" data-name="Path 3339" d="M35.35,153.517a.273.273,0,0,1-.184-.136c-.571-.646-1.25-2.085.8-2.977a.9.9,0,0,1,.285-.058l5.256,1.5,35.844,10.216s4.73,1.7,7.974,3.143c5.546,2.308,3.053,2.357-.611,1.721.351.175-8.678-1.824-8.678-1.824L40.608,155.014Z" transform="translate(-34.583 -150.345)" fill="#1c1c1c"/>
        </g>
      </g>
      <g id="Group_1225" data-name="Group 1225" transform="translate(54.065 16.489)">
        <g id="Group_1224" data-name="Group 1224">
          <path id="Path_3340" data-name="Path 3340" d="M75.157,163.562a.273.273,0,0,1,.136-.184c.645-.572,2.08-1.253,2.976.8a.9.9,0,0,1,.06.285l-1.481,5.262-3.108,11.025-.825,2.933s-1.681,4.736-3.114,7.982c-2.289,5.552-2.345,3.056-1.722-.612-.174.352,1.795-8.684,1.795-8.684l.707-2.518,3.1-11.028Z" transform="translate(-67.74 -162.793)" fill="#1c1c1c"/>
        </g>
      </g>
      <g id="Group_1227" data-name="Group 1227" transform="translate(0.072 33.27)">
        <g id="Group_1226" data-name="Group 1226">
          <path id="Path_3341" data-name="Path 3341" d="M27.747,178.635a.281.281,0,0,1-.184-.136c-.571-.648-1.25-2.086.8-2.978a.906.906,0,0,1,.285-.058l5.258,1.5,36.178,10.31s4.73,1.7,7.974,3.145c5.545,2.308,3.052,2.355-.612,1.719.352.175-8.676-1.823-8.676-1.823L33,180.13Z" transform="translate(-26.98 -175.461)" fill="#1c1c1c"/>
        </g>
      </g>
      <g id="Group_1229" data-name="Group 1229" transform="translate(8.987 1.211)">
        <g id="Group_1228" data-name="Group 1228">
          <path id="Path_3342" data-name="Path 3342" d="M33.821,153.623a.273.273,0,0,1-.081-.212c-.126-.845.046-2.452,2.256-2.1a.883.883,0,0,1,.272.1l1.837,2.069c.609.691,1.187,1.4,1.783,2.1,2.742,3.255,5.349,6.589,7.972,9.883.632.791,1.258,1.592,1.9,2.374,0,0,.719,1.021,1.666,2.424.476.7,1.015,1.484,1.559,2.281l1.556,2.354c3.418,4.9,1.326,3.645-1.452,1.109.087.18-1.468-1.415-3.041-3.067-.791-.823-1.554-1.677-2.143-2.313l-.976-1.066-1.636-2.048c-2.635-3.305-5.227-6.617-7.924-9.812-.586-.688-1.156-1.39-1.751-2.065Z" transform="translate(-33.71 -151.259)" fill="#1c1c1c"/>
        </g>
      </g>
      <g id="Group_1231" data-name="Group 1231" transform="translate(30.974 17.289)">
        <g id="Group_1230" data-name="Group 1230">
          <path id="Path_3343" data-name="Path 3343" d="M52.135,175.49a.23.23,0,0,1-.208-.009,2.715,2.715,0,0,1-1.261-.719c-.363-.412-.6-1.04.056-2.121a1.016,1.016,0,0,1,.22-.224c1.906-.714,3.716-1.078,5.409-1.551.517-.134.97-.29,1.478-.449l1.56-.5,3.122-1,6.213-2c.964-.31,1.93-.621,2.884-.951,0,0,1.207-.321,2.852-.723l2.694-.644c.934-.234,1.881-.462,2.746-.646,5.824-1.4,3.879.093.521,1.75a6.9,6.9,0,0,1-1.106.543c-.744.342-1.772.808-2.825,1.231l-4.252,1.745c-.829.287-1.661.548-2.493.819l-6.218,2.008-3.1.993-1.55.5c-.53.167-1.107.363-1.645.5C55.416,174.54,53.643,174.919,52.135,175.49Z" transform="translate(-50.308 -163.397)" fill="#1c1c1c"/>
        </g>
      </g>
      <g id="Group_1233" data-name="Group 1233" transform="translate(0 20.892)">
        <g id="Group_1232" data-name="Group 1232">
          <path id="Path_3344" data-name="Path 3344" d="M28.634,180.768a.3.3,0,0,1-.254,0,1.939,1.939,0,0,1-1.3-.86,2.135,2.135,0,0,1,.317-2.064.988.988,0,0,1,.172-.2,31.229,31.229,0,0,0,4.642-2.27c2.061-1.1,4.008-2.176,5.991-3.271l2.653-1.465,2.68-1.223c1.549-.7,3.509-1.571,5.163-2.216,5.54-2.322,3.816-.513.789,1.647.185-.064-1.662,1.159-3.557,2.4-.946.62-1.906,1.243-2.64,1.7l-1.223.774-2.3,1.272c-1.991,1.1-4.018,2.221-5.957,3.263A34,34,0,0,1,28.634,180.768Z" transform="translate(-26.925 -166.117)" fill="#1c1c1c"/>
        </g>
      </g>
      <g id="Group_1235" data-name="Group 1235" transform="translate(39.254 24.876)">
        <g id="Group_1234" data-name="Group 1234">
          <path id="Path_3345" data-name="Path 3345" d="M56.609,171.248a.266.266,0,0,1-.048-.221c0-.845.4-2.414,2.546-1.738a.9.9,0,0,1,.256.146l1.527,2.325c.489.783.937,1.584,1.407,2.375l3.505,5.946,1.551,2.623s2.264,4.485,3.622,7.765c2.433,5.488.591,3.8-1.632.821.135.368-5.043-7.3-5.043-7.3l-1.333-2.251-3.5-5.925c-.461-.775-.9-1.564-1.379-2.326Z" transform="translate(-56.559 -169.125)" fill="#1c1c1c"/>
        </g>
      </g>
    </g>
    <g id="Group_1238" data-name="Group 1238" transform="translate(77.097 157.449)">
      <g id="Group_1237" data-name="Group 1237">
        <path id="Path_3346" data-name="Path 3346" d="M67.886,153.176c-.007.012-.008.016-.09,0a6.97,6.97,0,0,1-1.187-.3,5.878,5.878,0,0,1-1.707-.9.506.506,0,0,1-.1-.107c.015-.017.189-.452.5-1.046.167-.287.355-.628.571-.975.229-.331.466-.7.719-1.036s.513-.669.764-.963l.689-.795.686-.737a6.153,6.153,0,0,1,.591-.274,5.734,5.734,0,0,1,1.235-.376c1.352-.346,1.535.521,1.3,1.322a3.2,3.2,0,0,1-.347.844c-.2.419-.408.84-.408.84l-.616.666-.6.691c-.209.256-.417.533-.635.807-.2.281-.387.564-.571.829l-.431.744C68.024,152.852,67.9,153.16,67.886,153.176Z" transform="translate(-64.801 -145.586)" fill="#1c1c1c"/>
      </g>
    </g>
    <g id="Group_1240" data-name="Group 1240" transform="translate(94.475 150.136)">
      <g id="Group_1239" data-name="Group 1239">
        <path id="Path_3347" data-name="Path 3347" d="M78.731,144.257c-.013,0-.017,0-.052-.072a7.971,7.971,0,0,1-.759-3.041.6.6,0,0,1,.009-.142l.812-.187.805-.183.931-.176.93-.174.831-.111.808-.106a2.857,2.857,0,0,1,.525.187,4.511,4.511,0,0,1,.986.566c1.008.66.571,1.423.045,1.852.029.034-.3.212-.615.378-.162.085-.318.158-.441.228l-.2.118-.706.1-.726.1-.841.162-.845.162-.742.172Z" transform="translate(-77.92 -140.066)" fill="#1c1c1c"/>
      </g>
    </g>
    <g id="Group_1242" data-name="Group 1242" transform="translate(117.323 149.46)">
      <g id="Group_1241" data-name="Group 1241" transform="translate(0)">
        <path id="Path_3348" data-name="Path 3348" d="M95.373,142.906c-.013,0-.019,0-.036-.083a7.062,7.062,0,0,1,.012-3.134.512.512,0,0,1,.05-.134l.978.041.966.045,1.056.1,2.784.262.144.074c.089.048.209.109.351.191a5.816,5.816,0,0,1,.948.658c1.045.758.653,1.481-.066,1.851a2.706,2.706,0,0,1-.828.309l-.615.175-.273.064-2.778-.254-1-.091-.844-.034Z" transform="translate(-95.168 -139.555)" fill="#1c1c1c"/>
      </g>
    </g>
    <g id="Group_1244" data-name="Group 1244" transform="translate(141.566 149.989)">
      <g id="Group_1243" data-name="Group 1243">
        <path id="Path_3349" data-name="Path 3349" d="M113.688,143.306c-.015,0-.02,0-.04-.082a7,7,0,0,1-.008-3.134.576.576,0,0,1,.048-.135l5.671.013a6.666,6.666,0,0,1,1.551.854c1.084.713.65,1.454-.021,1.852a10.657,10.657,0,0,1-1.608.632Z" transform="translate(-113.469 -139.955)" fill="#1c1c1c"/>
      </g>
    </g>
    <g id="Group_1246" data-name="Group 1246" transform="translate(161.241 147.349)">
      <g id="Group_1245" data-name="Group 1245">
        <path id="Path_3350" data-name="Path 3350" d="M129.174,142.772c-.013,0-.017,0-.054-.069a8.481,8.481,0,0,1-.792-3.033.731.731,0,0,1,0-.142l.636-.195.631-.191.709-.291.707-.29c.221-.1.423-.215.6-.3l.582-.3.466.011a4.894,4.894,0,0,1,.982.125c1.107.159,1.256.934.972,1.576a6.063,6.063,0,0,1-.876,1.248l-.669.344c-.2.1-.432.231-.691.346l-.825.346c-.283.115-.562.238-.832.339l-.766.238Z" transform="translate(-128.323 -137.962)" fill="#1c1c1c"/>
      </g>
    </g>
    <g id="Group_1248" data-name="Group 1248" transform="translate(175.781 138.681)">
      <g id="Group_1247" data-name="Group 1247">
        <path id="Path_3351" data-name="Path 3351" d="M141.195,137.6c-.011.008-.015.011-.075-.046a8.393,8.393,0,0,1-1.771-2.586.648.648,0,0,1-.049-.131c.008-.012.225-.148.525-.381a11.384,11.384,0,0,0,1.036-.9,11.917,11.917,0,0,0,.911-1.012l.371-.491s.156-.083.4-.188a8.892,8.892,0,0,1,.915-.322,1.243,1.243,0,0,1,1.17.036,1.169,1.169,0,0,1,.441.88,1.769,1.769,0,0,1-.058.772l-.113.544a2.542,2.542,0,0,1-.064.249l-.476.636a16.4,16.4,0,0,1-1.17,1.3,14.981,14.981,0,0,1-1.322,1.156C141.485,137.412,141.207,137.591,141.195,137.6Z" transform="translate(-139.299 -131.418)" fill="#1c1c1c"/>
      </g>
    </g>
    <g id="Group_1250" data-name="Group 1250" transform="translate(183.596 119.331)">
      <g id="Group_1249" data-name="Group 1249">
        <path id="Path_3352" data-name="Path 3352" d="M148.491,125.008c0,.015-.005.021-.087.025a6.862,6.862,0,0,1-3.08-.585.536.536,0,0,1-.126-.069l.131-.846.132-.84.079-.984.079-.982c.009-.319.019-.617.026-.873l.028-.852s.093-.219.242-.526a5.621,5.621,0,0,1,.623-1.007c.718-1.082,1.457-.654,1.852.028a2.677,2.677,0,0,1,.34.79l.2.579.081.272-.026.893-.027.917-.085,1.07-.087,1.076c-.053.347-.1.673-.146.952Z" transform="translate(-145.198 -116.811)" fill="#1c1c1c"/>
      </g>
    </g>
    <g id="Group_1252" data-name="Group 1252" transform="translate(173.315 109.047)">
      <g id="Group_1251" data-name="Group 1251">
        <path id="Path_3353" data-name="Path 3353" d="M139.423,127.927a.421.421,0,0,1-.293.069,2.565,2.565,0,0,1-.94-.124,1.1,1.1,0,0,1-.71-.6,1.352,1.352,0,0,1-.038-.429c.009-.15.057-.307.078-.477a1.774,1.774,0,0,0,.023-.249c.005-.085.02-.183.023-.272a2.393,2.393,0,0,1,.024-.289l.016-.148.032-.17a.583.583,0,0,1,.087-.2,7.83,7.83,0,0,0,.934-.665c.323-.257.646-.54.967-.835.641-.589,1.272-1.221,1.888-1.873,1.356-1.437,2.656-2.962,3.884-4.526l.326-.42.461-.615.458-.617.453-.645c.6-.856,1.209-1.845,1.833-2.811l1.813-2.835a1.422,1.422,0,0,1,.1-.148l.005.22.013.44.024.878.053,1.872.028.975.015.485.023.454.09,1.819a2.071,2.071,0,0,0,.048.4l.064.366.127.731.064.366.032.183.016.091c.005.03.008.032.012.05l.093.335.04.2c.028.13.054.323.121.555a16.376,16.376,0,0,0,.562,1.872,18.608,18.608,0,0,0,1.07,2.386,25.651,25.651,0,0,0,1.445,2.325c.437.589.809,1.08,1.123,1.47s.544.711.709.955c.323.493.338.721.113.75a7.352,7.352,0,0,1-3.381-2,15.561,15.561,0,0,1-3.015-3.518,17.187,17.187,0,0,1-1.6-3.075c-.191-.441-.3-.825-.4-1.092l-.138-.411-.025-.119-.143.185c-1.292,1.648-2.641,3.235-4.085,4.767-.657.7-1.335,1.376-2.057,2.041-.362.332-.734.66-1.135.98A11.094,11.094,0,0,1,139.423,127.927Z" transform="translate(-137.437 -109.047)" fill="#1c1c1c"/>
      </g>
    </g>
  </g>
</svg>
