<svg xmlns="http://www.w3.org/2000/svg" width="50" height="50" viewBox="0 0 50 50"><g transform="translate(-408 -4350)"><circle cx="25" cy="25" r="25" transform="translate(408 4350)" fill="#f1f1f1"/><g transform="translate(417.246 4302)"><g transform="translate(1.583 61)"><path d="M52.877,61H26.907a2.737,2.737,0,0,0-1.186.278L39.83,75.387l3.162-3.039h0l11.07-11.069A2.737,2.737,0,0,0,52.877,61Z" transform="translate(-25.721 -61)"/></g><g transform="translate(20.813 62.583)"><path d="M348.63,86.728,338.213,97.145l10.417,10.417a2.737,2.737,0,0,0,.278-1.186V87.914A2.737,2.737,0,0,0,348.63,86.728Z" transform="translate(-338.213 -86.728)"/></g><g transform="translate(0 62.583)"><path d="M.278,86.721A2.737,2.737,0,0,0,0,87.907v18.462a2.738,2.738,0,0,0,.277,1.186L10.695,97.138Z" transform="translate(0 -86.721)"/></g><g transform="translate(1.582 74.305)"><path d="M43.639,277.211l-3.163,3.04a.923.923,0,0,1-1.305,0l-3.04-3.04L25.714,287.628a2.737,2.737,0,0,0,1.187.278H52.87a2.737,2.737,0,0,0,1.186-.278Z" transform="translate(-25.714 -277.211)"/></g></g></g></svg>