<svg xmlns="http://www.w3.org/2000/svg" width="27.557" height="44.333" viewBox="0 0 27.557 44.333"><g transform="translate(-21.667 -11.833)"><g transform="translate(21.667 11.833)"><g transform="translate(4.739 5.139)"><path d="M27.528,16.383V12.174a.5.5,0,0,1,.5-.5h3.986a.5.5,0,0,1,.5.5v4.208a.5.5,0,0,1-.5.5H28.032A.5.5,0,0,1,27.528,16.383Z" transform="translate(-27.528 -11.67)" fill="#aa0025"/><path d="M27.528,22.423V18.2a.506.506,0,0,1,.5-.5h3.986a.506.506,0,0,1,.5.5v4.218a.506.506,0,0,1-.5.5H28.032A.506.506,0,0,1,27.528,22.423Z" transform="translate(-27.528 -11.614)" fill="#aa0025"/><path d="M27.528,28.453V24.234a.5.5,0,0,1,.5-.5h3.986a.5.5,0,0,1,.5.5v4.218a.5.5,0,0,1-.5.5H28.032A.5.5,0,0,1,27.528,28.453Z" transform="translate(-27.528 -11.559)" fill="#aa0025"/><path d="M33.928,22.423V18.2a.513.513,0,0,1,.5-.5h3.986a.506.506,0,0,1,.5.5v4.218a.506.506,0,0,1-.5.5H34.432A.513.513,0,0,1,33.928,22.423Z" transform="translate(-27.469 -11.614)" fill="#aa0025"/><path d="M33.928,28.453V24.234a.506.506,0,0,1,.5-.5h3.986a.5.5,0,0,1,.5.5v4.218a.5.5,0,0,1-.5.5H34.432A.506.506,0,0,1,33.928,28.453Z" transform="translate(-27.469 -11.559)" fill="#aa0025"/><path d="M33.928,16.383V12.174a.506.506,0,0,1,.5-.5h3.986a.5.5,0,0,1,.5.5v4.208a.5.5,0,0,1-.5.5H34.432A.506.506,0,0,1,33.928,16.383Z" transform="translate(-27.469 -11.67)" fill="#aa0025"/></g><g transform="translate(0)"><path d="M35.427,2.5H18.384a1.921,1.921,0,0,0-1.937,1.892V34.58a1.92,1.92,0,0,0,1.937,1.892h14.2c-.008-.121-.015-.241-.023-.369a9.315,9.315,0,0,1,.023-1.13l-2.06-2.02H18.67V6.019H35.142v25l1.983,1.937h.239V4.391A1.911,1.911,0,0,0,35.427,2.5ZM26.115,34.3a.267.267,0,0,1,.278-.264h1.026a.267.267,0,0,1,.278.264v1a.273.273,0,0,1-.278.271H26.393a.273.273,0,0,1-.278-.271v-1ZM26.9,4.881a.712.712,0,1,1,.733-.716A.722.722,0,0,1,26.9,4.881Z" transform="translate(-16.448 -2.5)" fill="#aa0025"/><path d="M37.338,47.09c.01.172.02.333.03.494h-.02A4.043,4.043,0,0,1,37.338,47.09Z" transform="translate(-22.699 -13.613)" fill="#aa0025"/><path d="M36.018,55.277a7.772,7.772,0,0,1-3.706-6.545h5.21a10.044,10.044,0,0,0,3.859,6.461.5.5,0,0,0,.627-.79,8.948,8.948,0,0,1-3.556-6.244,12.067,12.067,0,0,1-.01-2.6.507.507,0,0,0-.146-.405l-4.238-4.239a2.043,2.043,0,1,1,2.889-2.89l6.861,6.862,0,0,2.31,2.31a.5.5,0,1,0,.714-.714l-2.163-2.164V32.886L50.3,38.517V58.076H36.275V55.717A.5.5,0,0,0,36.018,55.277Z" transform="translate(-22.745 -13.743)" fill="#aa0025"/></g></g></g></svg>