<svg xmlns="http://www.w3.org/2000/svg" width="51" height="51" viewBox="0 0 51 51"><g transform="translate(0)"><path d="M51.332,29.813a21.491,21.491,0,0,0-9.256,40.894L42.749,57.7s-1.266-.416-1.543-.551c-2.686-1.183-4.636-4.666-4.636-9.187,0-4.933,3.826-9.182,7.524-9.217h.014c3.7.035,7.525,4.284,7.525,9.217,0,4.521-1.953,8-4.633,9.187-.021.009-1.556.566-1.556.566L46.2,72.178a21.081,21.081,0,0,0,11.977-.484l.666-12.888A6.91,6.91,0,0,1,54.647,55.9c-1.163-1.742.895-17.155.895-17.155h1.338V53.209H58.21V38.746h1.454V53.212h1.323V38.746h1.508V53.212h1.328V38.746h1.027s2.058,15.414.893,17.155A6.929,6.929,0,0,1,61.6,58.8l-.059.022.579,11.086A21.494,21.494,0,0,0,51.332,29.813Z" transform="translate(-25.831 -25.819)" fill="#aa0025"/><path d="M92.507,142.747a6.187,6.187,0,0,1,.185-.617.281.281,0,0,0-.156-.314.257.257,0,0,0-.338.073s-.147.234-.36.581a6.232,6.232,0,0,0-.605,1.367,11.308,11.308,0,0,0-.415,1.984,9.467,9.467,0,0,0-.03,1.15,5.444,5.444,0,0,0,.22,1.219,7.894,7.894,0,0,0,1.922,3.51,6.62,6.62,0,0,0,1.028.833l.1.068c.059.039.116.075.172.108a1.972,1.972,0,0,0,.414.171.249.249,0,0,0,.282-.118.252.252,0,0,0-.083-.3,2.689,2.689,0,0,1-.306-.335,6.075,6.075,0,0,1-.394-.54c-.105-.153-.229-.325-.344-.493a17.4,17.4,0,0,1-1.358-3.34,4.443,4.443,0,0,1-.19-.92,9.388,9.388,0,0,1-.054-.983,12.987,12.987,0,0,1,.081-1.825A7.124,7.124,0,0,1,92.507,142.747Z" transform="translate(-78.621 -122.79)" fill="#aa0025"/><path d="M25.5,0A25.5,25.5,0,1,0,51,25.5,25.531,25.531,0,0,0,25.5,0Zm0,49.1A23.6,23.6,0,1,1,49.1,25.5,23.626,23.626,0,0,1,25.5,49.1Z" transform="translate(0)" fill="#aa0025"/></g></svg>