<svg xmlns="http://www.w3.org/2000/svg" width="47.68" height="26.288" viewBox="0 0 47.68 26.288"><g transform="translate(0 -114.855)"><g transform="translate(7.08 114.855)"><path d="M116.605,139.016,112.937,116.4a1.834,1.834,0,0,0-1.81-1.54h-35.1l.3,1.834.3,1.834L79.7,137.475l.3,1.834.3,1.834h34.5a1.834,1.834,0,0,0,1.81-2.127Zm-10.979-9.183H87.287a1.834,1.834,0,1,1,0-3.668h18.338a1.834,1.834,0,0,1,0,3.668Z" transform="translate(-76.029 -114.855)" fill="#aa0025"/></g><g transform="translate(0 116.633)"><g transform="translate(0)"><path d="M7.33,156.621l-.3-1.834L5.511,145.4l-.929-5.729-.929-5.729L.024,156.327a1.834,1.834,0,0,0,1.81,2.127H7.627Z" transform="translate(0 -133.944)" fill="#aa0025"/></g></g></g></svg>